<svg width="72" height="75" viewBox="0 0 72 75" fill="none" xmlns="http://www.w3.org/2000/svg">
<g clip-path="url(#clip0_6_24)">
<path fill-rule="evenodd" clip-rule="evenodd" d="M18.293 36.293C18.4805 36.1055 18.7348 36.0001 19 36H32C32.1978 36 32.391 36.0587 32.5555 36.1686C32.7199 36.2785 32.848 36.4346 32.9237 36.6173C32.9993 36.8 33.0192 37.0011 32.9806 37.195C32.942 37.389 32.8468 37.5671 32.707 37.707L29.707 40.707C29.5195 40.8945 29.2652 40.9999 29 41H16C15.8023 41 15.609 40.9413 15.4445 40.8314C15.2801 40.7215 15.152 40.5654 15.0763 40.3827C15.0007 40.2 14.9808 39.9989 15.0194 39.805C15.058 39.611 15.1532 39.4329 15.293 39.293L18.293 36.293ZM15.118 42.528C15.2035 42.3684 15.3306 42.235 15.486 42.142C15.6413 42.049 15.819 41.9999 16 42H29C29.1646 42 29.3266 42.0406 29.4718 42.1182C29.6169 42.1958 29.7407 42.3081 29.832 42.445L31.832 45.445C31.9325 45.5956 31.9902 45.7707 31.999 45.9515C32.0078 46.1323 31.9673 46.3121 31.8819 46.4718C31.7965 46.6314 31.6693 46.7648 31.514 46.8579C31.3587 46.9509 31.181 47 31 47H18C17.8354 47 17.6734 46.9594 17.5282 46.8818C17.3831 46.8042 17.2593 46.6919 17.168 46.555L15.168 43.555C15.0675 43.4044 15.0097 43.2293 15.0009 43.0484C14.9921 42.8675 15.0326 42.6877 15.118 42.528ZM17.293 48.293C17.4805 48.1054 17.7348 48.0001 18 48H31C31.1978 48 31.391 48.0587 31.5555 48.1686C31.7199 48.2785 31.848 48.4346 31.9237 48.6173C31.9993 48.8 32.0192 49.0011 31.9806 49.195C31.942 49.389 31.8468 49.5671 31.707 49.707L28.707 52.707C28.5195 52.8946 28.2652 52.9999 28 53H15C14.8023 53 14.609 52.9413 14.4445 52.8314C14.2801 52.7215 14.152 52.5654 14.0763 52.3827C14.0007 52.2 13.9808 51.9989 14.0194 51.805C14.058 51.611 14.1532 51.4329 14.293 51.293L17.293 48.293Z" fill="#25C2A0"/>
</g>
<path d="M67 19H63V15H61V24H45V8H54V6H50V2H48V6H45C44.4697 6.00053 43.9613 6.21141 43.5864 6.58637C43.2114 6.96133 43.0005 7.46973 43 8V11H39V13H43V19H39V21H43V24C43.0005 24.5303 43.2114 25.0387 43.5864 25.4136C43.9613 25.7886 44.4697 25.9995 45 26H48V30H50V26H56V30H58V26H61C61.5302 25.9992 62.0384 25.7882 62.4133 25.4133C62.7882 25.0384 62.9992 24.5302 63 24V21H67V19Z" fill="#25C2A0"/>
<path d="M58 21H48V11H58V21ZM50 19H56V13H50V19ZM68 13H66C65.9968 10.3488 64.9422 7.80712 63.0676 5.93244C61.1929 4.05776 58.6512 3.00318 56 3V1C59.1815 1.00344 62.2318 2.26883 64.4815 4.51852C66.7312 6.76821 67.9966 9.81846 68 13Z" fill="#25C2A0"/>
<path d="M63 13H61C60.9984 11.6744 60.4711 10.4036 59.5338 9.46622C58.5964 8.52888 57.3256 8.00159 56 8V6C57.8559 6.00212 59.6351 6.7403 60.9474 8.05259C62.2597 9.36489 62.9979 11.1441 63 13Z" fill="#25C2A0"/>
<g filter="url(#filter0_d_6_24)">
<path d="M15.6918 36.3547C3.90061 4.50393 -1.40895 -5.73353 36.6918 10.8547M31.1918 52.3548C70.1945 74.6186 70.5697 64.0939 58.1918 31.3548" stroke="#25C2A0" stroke-width="5"/>
</g>
<defs>
<filter id="filter0_d_6_24" x="0.49987" y="0.500053" width="71.3953" height="74.1448" filterUnits="userSpaceOnUse" color-interpolation-filters="sRGB">
<feFlood flood-opacity="0" result="BackgroundImageFix"/>
<feColorMatrix in="SourceAlpha" type="matrix" values="0 0 0 0 0 0 0 0 0 0 0 0 0 0 0 0 0 0 127 0" result="hardAlpha"/>
<feOffset dy="4"/>
<feGaussianBlur stdDeviation="2"/>
<feComposite in2="hardAlpha" operator="out"/>
<feColorMatrix type="matrix" values="0 0 0 0 0 0 0 0 0 0 0 0 0 0 0 0 0 0 0.25 0"/>
<feBlend mode="normal" in2="BackgroundImageFix" result="effect1_dropShadow_6_24"/>
<feBlend mode="normal" in="SourceGraphic" in2="effect1_dropShadow_6_24" result="shape"/>
</filter>
<clipPath id="clip0_6_24">
<rect width="24" height="24" fill="white" transform="translate(11 32)"/>
</clipPath>
</defs>
</svg>
